<svg aria-hidden="true" style="position: absolute; width: 0; height: 0; overflow: hidden;" version="1.1" xmlns="http://www.w3.org/2000/svg" xmlns:xlink="http://www.w3.org/1999/xlink">
<defs>
<symbol id="icon-cart" viewBox="0 0 35 32">
<path d="M33.48 5.826h-27.299l-0.405-4.52c-0.032-0.357-0.196-0.689-0.461-0.93s-0.61-0.376-0.968-0.375h-2.912c-0.38 0-0.745 0.151-1.014 0.42s-0.42 0.633-0.42 1.014c0 0.38 0.151 0.745 0.42 1.014s0.633 0.42 1.014 0.42h1.6l1.65 18.373c0.117 1.325 0.832 2.762 2.066 3.738-2.222 2.838-0.192 7.022 3.424 7.022 3 0 5.115-2.992 4.086-5.827h7.848c-1.027 2.832 1.083 5.827 4.088 5.827 1.152-0.001 2.257-0.46 3.072-1.275s1.273-1.92 1.275-3.072c-0.001-1.152-0.46-2.258-1.275-3.072s-1.92-1.273-3.072-1.275h-16.013c-1.090 0-2.038-0.656-2.448-1.614l22.914-1.347c0.305-0.018 0.596-0.132 0.831-0.327s0.402-0.46 0.476-0.756l2.914-11.653c0.053-0.212 0.056-0.432 0.011-0.645s-0.139-0.413-0.273-0.585c-0.134-0.172-0.306-0.311-0.502-0.406s-0.411-0.145-0.629-0.145h0.002zM10.173 29.133c-0.381-0.018-0.74-0.181-1.003-0.457s-0.41-0.642-0.41-1.023 0.147-0.747 0.41-1.023c0.263-0.276 0.622-0.439 1.003-0.457 0.381 0.018 0.74 0.181 1.003 0.457s0.41 0.642 0.41 1.023-0.147 0.747-0.41 1.023c-0.263 0.276-0.622 0.439-1.003 0.457zM26.197 29.133c-0.381-0.018-0.74-0.181-1.003-0.457s-0.41-0.642-0.41-1.023 0.147-0.747 0.41-1.023c0.263-0.276 0.622-0.439 1.003-0.457 0.381 0.018 0.74 0.181 1.003 0.457s0.41 0.642 0.41 1.023-0.147 0.747-0.41 1.023c-0.263 0.276-0.622 0.439-1.003 0.457zM29.43 17.544l-22.080 1.296-0.912-10.146h25.205l-2.213 8.85z"></path>
</symbol>
<symbol id="icon-close" viewBox="0 0 30 32">
<path d="M24.738 1.668l4.527 4.527-9.809 9.803 9.807 9.807-4.527 4.527-9.803-9.809-9.803 9.807-4.527-4.527 9.803-9.803-9.805-9.805 4.527-4.527 9.803 9.805 9.807-9.805z"></path>
</symbol>
<symbol id="icon-delete" viewBox="0 0 28 32">
<path d="M0 5.25v-1.75c0-0.832 0.668-1.5 1.5-1.5h7l0.588-1.168c0.122-0.25 0.313-0.461 0.549-0.609s0.51-0.225 0.789-0.223h7.142c0.279-0 0.553 0.078 0.79 0.225s0.429 0.357 0.554 0.607l0.588 1.168h7c0.832 0 1.5 0.668 1.5 1.5v1.75c-0.001 0.199-0.080 0.389-0.22 0.53s-0.331 0.22-0.53 0.22h-26.5c-0.199-0.001-0.389-0.080-0.53-0.22s-0.22-0.331-0.22-0.53v0zM26 8.75v20.25c0 0.796-0.316 1.559-0.879 2.121s-1.326 0.879-2.121 0.879h-18c-0.796 0-1.559-0.316-2.121-0.879s-0.879-1.326-0.879-2.121v-20.25c0-0.412 0.338-0.75 0.75-0.75h22.5c0.412 0 0.75 0.338 0.75 0.75zM9 13c0-0.55-0.45-1-1-1s-1 0.45-1 1v14c0 0.55 0.45 1 1 1s1-0.45 1-1v-14zM15 13c0-0.55-0.45-1-1-1s-1 0.45-1 1v14c0 0.55 0.45 1 1 1s1-0.45 1-1v-14zM21 13c0-0.55-0.45-1-1-1s-1 0.45-1 1v14c0 0.55 0.45 1 1 1s1-0.45 1-1v-14z"></path>
</symbol>
<symbol id="icon-menu" viewBox="0 0 34 32">
<path d="M34.133 25.6v6.4h-34.133v-6.4h34.133zM34.133 12.8v6.4h-34.133v-6.4h34.133zM34.133 0v6.4h-34.133v-6.4h34.133z"></path>
</symbol>
<symbol id="icon-minus" viewBox="0 0 96 32">
<path d="M90.856 26.656c0.675 0.002 1.345-0.129 1.969-0.386s1.193-0.635 1.67-1.113c0.478-0.477 0.857-1.044 1.115-1.668s0.39-1.293 0.39-1.969v-16.376c0.002-0.676-0.13-1.346-0.387-1.971s-0.637-1.193-1.114-1.671c-0.478-0.478-1.046-0.857-1.671-1.115s-1.295-0.389-1.971-0.387h-85.712c-0.676-0.002-1.346 0.13-1.971 0.387s-1.193 0.637-1.671 1.115c-0.478 0.478-0.857 1.046-1.115 1.671s-0.389 1.295-0.387 1.971v16.368c0 2.856 2.296 5.144 5.144 5.144h85.712z"></path>
</symbol>
<symbol id="icon-next" viewBox="0 0 21 32">
<path d="M3.663-0.108l-3.771 3.771 12.337 12.337-12.337 12.337 3.771 3.771 16.108-16.108-16.108-16.108z"></path>
</symbol>
<symbol id="icon-plus" viewBox="0 0 32 32">
<path d="M32 18.728v-5.456c0.001-0.225-0.043-0.449-0.129-0.657s-0.212-0.398-0.371-0.557c-0.159-0.159-0.349-0.286-0.557-0.372s-0.432-0.13-0.657-0.129h-9.84v-9.843c0.001-0.226-0.043-0.45-0.13-0.658s-0.213-0.398-0.373-0.558c-0.16-0.159-0.35-0.286-0.559-0.371s-0.433-0.129-0.659-0.128h-5.453c-0.225-0.001-0.449 0.043-0.657 0.129s-0.398 0.212-0.557 0.372c-0.159 0.159-0.286 0.349-0.372 0.557s-0.13 0.432-0.129 0.657v9.84h-9.843c-0.226-0.001-0.45 0.043-0.658 0.13s-0.398 0.213-0.558 0.373c-0.159 0.16-0.286 0.35-0.371 0.559s-0.129 0.433-0.128 0.659v5.456c0 0.949 0.765 1.715 1.715 1.715h9.84v9.843c0 0.949 0.768 1.715 1.717 1.715h5.456c0.225 0.001 0.449-0.043 0.657-0.129s0.398-0.212 0.557-0.371c0.159-0.159 0.286-0.349 0.372-0.557s0.13-0.432 0.129-0.657v-9.84h9.843c0.226 0.001 0.45-0.043 0.659-0.13s0.398-0.213 0.558-0.374c0.159-0.16 0.286-0.35 0.371-0.56s0.129-0.433 0.127-0.659v0.003z"></path>
</symbol>
<symbol id="icon-prev" viewBox="0 0 21 32">
<path d="M17.67-0.108l3.771 3.771-12.337 12.337 12.337 12.337-3.771 3.771-16.108-16.108 16.108-16.108z"></path>
</symbol>
</defs>
</svg>
